<mxfile host="app.diagrams.net" modified="2024-01-09T07:13:55.634Z" agent="Mozilla/5.0 (Windows NT 10.0; Win64; x64) AppleWebKit/537.36 (KHTML, like Gecko) Chrome/105.0.0.0 Safari/537.36" version="22.1.17" etag="Yj4wKr3OO3gYrUI-05SQ" type="github">
  <diagram name="第 1 页" id="uB4D9h6Hoa-fF_-oc0mA">
    <mxGraphModel>
      <root>
        <mxCell id="0" />
        <mxCell id="1" parent="0" />
      </root>
    </mxGraphModel>
  </diagram>
</mxfile>
